<svg version="1.1" xmlns="http://www.w3.org/2000/svg" viewBox="0 0 360 305" width="720" height="610">
  <!-- svg-source:excalidraw -->
  
  <defs>
    <style class="style-fonts">
      @font-face {
        font-family: "Virgil";
        src: url("https://excalidraw.com/Virgil.woff2");
      }
      @font-face {
        font-family: "Cascadia";
        src: url("https://excalidraw.com/Cascadia.woff2");
      }
    </style>
  </defs>
  <g stroke-linecap="round" transform="translate(10 10) rotate(0 170 142.5)"><path d="M15.2 132.47 C15.2 132.47, 15.2 132.47, 15.2 132.47 M15.2 132.47 C15.2 132.47, 15.2 132.47, 15.2 132.47 M11 143.39 C16.12 137.51, 21.23 131.63, 30.69 120.75 M11 143.39 C17.25 136.21, 23.49 129.03, 30.69 120.75 M12.71 147.53 C20.43 138.65, 28.15 129.77, 50.11 104.51 M12.71 147.53 C22.71 136.02, 32.71 124.52, 50.11 104.51 M14.42 151.66 C26.62 137.63, 38.81 123.59, 69.53 88.26 M14.42 151.66 C26.25 138.04, 38.09 124.43, 69.53 88.26 M16.78 155.04 C43.44 124.38, 70.09 93.71, 88.95 72.02 M16.78 155.04 C31.72 137.86, 46.66 120.67, 88.95 72.02 M19.14 158.42 C48.3 124.88, 77.45 91.34, 108.37 55.78 M19.14 158.42 C38.72 135.9, 58.29 113.39, 108.37 55.78 M22.16 161.04 C53.94 124.49, 85.71 87.93, 136.32 29.72 M22.16 161.04 C57.29 120.63, 92.42 80.22, 136.32 29.72 M25.18 163.67 C64.37 118.59, 103.55 73.51, 149.83 20.27 M25.18 163.67 C57.81 126.14, 90.43 88.61, 149.83 20.27 M28.2 166.29 C71.34 116.66, 114.48 67.04, 160.07 14.59 M28.2 166.29 C75.36 112.04, 122.52 57.78, 160.07 14.59 M31.22 168.91 C59.78 136.06, 88.35 103.2, 168.34 11.18 M31.22 168.91 C60.27 135.5, 89.31 102.09, 168.34 11.18 M34.24 171.54 C82.28 116.28, 130.31 61.02, 173.32 11.54 M34.24 171.54 C80.65 118.15, 127.05 64.77, 173.32 11.54 M37.26 174.16 C68.4 138.33, 99.55 102.5, 179.62 10.39 M37.26 174.16 C91.17 112.14, 145.08 50.12, 179.62 10.39 M40.28 176.79 C82.8 127.87, 125.32 78.96, 182.64 13.02 M40.28 176.79 C83.25 127.36, 126.22 77.92, 182.64 13.02 M43.29 179.41 C77.88 139.62, 112.47 99.84, 186.32 14.89 M43.29 179.41 C73.38 144.8, 103.47 110.18, 186.32 14.89 M46.31 182.04 C102.14 117.82, 157.96 53.6, 189.99 16.75 M46.31 182.04 C91.9 129.6, 137.48 77.16, 189.99 16.75 M49.33 184.66 C100.98 125.25, 152.62 65.84, 193.01 19.38 M49.33 184.66 C105.95 119.53, 162.56 54.41, 193.01 19.38 M53.01 186.53 C103.42 128.54, 153.83 70.55, 196.03 22 M53.01 186.53 C99.36 133.21, 145.71 79.88, 196.03 22 M56.03 189.15 C104.82 133.02, 153.62 76.89, 199.7 23.87 M56.03 189.15 C107.15 130.34, 158.27 71.53, 199.7 23.87 M59.04 191.78 C111.33 131.63, 163.61 71.49, 202.72 26.5 M59.04 191.78 C95.77 149.53, 132.49 107.29, 202.72 26.5 M62.06 194.4 C110.37 138.84, 158.67 83.27, 205.74 29.12 M62.06 194.4 C113.94 134.73, 165.81 75.06, 205.74 29.12 M65.08 197.03 C112.8 142.13, 160.52 87.24, 208.76 31.75 M65.08 197.03 C113.08 141.82, 161.07 86.61, 208.76 31.75 M68.1 199.65 C123.99 135.36, 179.87 71.07, 211.78 34.37 M68.1 199.65 C98.84 164.29, 129.59 128.92, 211.78 34.37 M71.12 202.28 C100.21 168.81, 129.3 135.34, 214.8 36.99 M71.12 202.28 C124.39 140.99, 177.66 79.71, 214.8 36.99 M74.14 204.9 C120.65 151.39, 167.17 97.88, 217.82 39.62 M74.14 204.9 C125.58 145.72, 177.02 86.55, 217.82 39.62 M77.16 207.52 C113.96 165.18, 150.77 122.84, 220.83 42.24 M77.16 207.52 C115.4 163.53, 153.65 119.53, 220.83 42.24 M80.18 210.15 C116.41 168.46, 152.65 126.78, 223.85 44.87 M80.18 210.15 C134.15 148.06, 188.12 85.97, 223.85 44.87 M83.85 212.02 C113.94 177.41, 144.02 142.8, 226.87 47.49 M83.85 212.02 C128.16 161.04, 172.47 110.07, 226.87 47.49 M86.87 214.64 C125.77 169.89, 164.67 125.15, 229.89 50.11 M86.87 214.64 C128.11 167.2, 169.35 119.76, 229.89 50.11 M89.89 217.27 C135.39 164.92, 180.9 112.57, 232.91 52.74 M89.89 217.27 C129.96 171.17, 170.03 125.08, 232.91 52.74 M92.91 219.89 C145.34 159.57, 197.78 99.25, 235.93 55.36 M92.91 219.89 C129.62 177.66, 166.33 135.43, 235.93 55.36 M95.93 222.51 C134.34 178.32, 172.76 134.13, 238.95 57.99 M95.93 222.51 C145.25 165.78, 194.56 109.04, 238.95 57.99 M98.95 225.14 C142.86 174.62, 186.78 124.1, 242.62 59.86 M98.95 225.14 C139.22 178.81, 179.49 132.49, 242.62 59.86 M101.96 227.76 C143.15 180.38, 184.34 133, 245.64 62.48 M101.96 227.76 C153.76 168.18, 205.56 108.59, 245.64 62.48 M104.98 230.39 C154.49 173.44, 203.99 116.5, 248.66 65.11 M104.98 230.39 C147.78 181.15, 190.58 131.92, 248.66 65.11 M108 233.01 C141.52 194.46, 175.03 155.91, 251.68 67.73 M108 233.01 C161.58 171.38, 215.15 109.75, 251.68 67.73 M111.02 235.64 C157.66 181.98, 204.3 128.33, 254.7 70.35 M111.02 235.64 C152.28 188.17, 193.55 140.7, 254.7 70.35 M114.7 237.51 C158.35 187.29, 202 137.07, 257.72 72.98 M114.7 237.51 C160 185.39, 205.31 133.27, 257.72 72.98 M117.71 240.13 C171.1 178.72, 224.48 117.31, 260.74 75.6 M117.71 240.13 C169.93 180.07, 222.14 120, 260.74 75.6 M120.73 242.75 C168.7 187.58, 216.66 132.4, 263.75 78.23 M120.73 242.75 C165.93 190.76, 211.13 138.76, 263.75 78.23 M123.75 245.38 C152.88 211.87, 182 178.37, 266.77 80.85 M123.75 245.38 C164.85 198.1, 205.95 150.82, 266.77 80.85 M126.77 248 C168.59 199.9, 210.41 151.79, 269.79 83.48 M126.77 248 C181.63 184.9, 236.49 121.79, 269.79 83.48 M129.79 250.63 C160.54 215.25, 191.3 179.87, 272.81 86.1 M129.79 250.63 C179.71 193.2, 229.64 135.77, 272.81 86.1 M132.81 253.25 C187.3 190.57, 241.79 127.89, 275.83 88.72 M132.81 253.25 C178.77 200.38, 224.73 147.51, 275.83 88.72 M135.83 255.87 C191.97 191.29, 248.11 126.71, 278.85 91.35 M135.83 255.87 C176.47 209.13, 217.1 162.38, 278.85 91.35 M138.85 258.5 C187.72 202.27, 236.6 146.05, 281.87 93.97 M138.85 258.5 C170.37 222.23, 201.9 185.96, 281.87 93.97 M141.87 261.12 C171.5 227.03, 201.14 192.93, 284.89 96.6 M141.87 261.12 C194.17 200.96, 246.47 140.79, 284.89 96.6 M144.88 263.75 C195.11 205.97, 245.34 148.19, 287.91 99.22 M144.88 263.75 C196.5 204.37, 248.12 144.99, 287.91 99.22 M148.56 265.62 C193.56 213.85, 238.57 162.08, 290.92 101.84 M148.56 265.62 C192.1 215.53, 235.64 165.44, 290.92 101.84 M151.58 268.24 C197.39 215.54, 243.2 162.84, 293.94 104.47 M151.58 268.24 C195.99 217.15, 240.4 166.06, 293.94 104.47 M155.25 270.11 C192.4 227.38, 229.55 184.65, 296.96 107.09 M155.25 270.11 C205.67 212.11, 256.08 154.12, 296.96 107.09 M158.27 272.73 C186.9 239.8, 215.52 206.87, 299.98 109.72 M158.27 272.73 C191.12 234.95, 223.97 197.16, 299.98 109.72 M162.6 273.85 C215.14 213.42, 267.67 152.99, 303 112.34 M162.6 273.85 C191.49 240.62, 220.38 207.39, 303 112.34 M166.28 275.72 C204.87 231.33, 243.45 186.94, 306.02 114.97 M166.28 275.72 C217.66 216.61, 269.04 157.5, 306.02 114.97 M171.26 276.08 C208.06 233.76, 244.85 191.43, 309.04 117.59 M171.26 276.08 C210.55 230.89, 249.83 185.7, 309.04 117.59 M177.56 274.93 C213.14 234.01, 248.71 193.08, 312.06 120.21 M177.56 274.93 C225.45 219.84, 273.34 164.76, 312.06 120.21 M181.24 276.8 C226.95 224.22, 272.65 171.64, 315.07 122.84 M181.24 276.8 C216.34 236.42, 251.43 196.05, 315.07 122.84 M200 261.31 C226.37 230.97, 252.75 200.64, 318.09 125.46 M200 261.31 C238.06 217.53, 276.11 173.76, 318.09 125.46 M220.08 244.31 C248.8 211.27, 277.52 178.23, 321.11 128.09 M220.08 244.31 C254.89 204.27, 289.7 164.22, 321.11 128.09 M239.5 228.07 C260.05 204.43, 280.6 180.78, 323.48 131.47 M239.5 228.07 C271.47 191.29, 303.45 154.5, 323.48 131.47 M259.58 211.07 C284.2 182.75, 308.82 154.42, 326.49 134.09 M259.58 211.07 C284.91 181.93, 310.25 152.78, 326.49 134.09 M279 194.83 C296.79 174.36, 314.59 153.89, 328.86 137.47 M279 194.83 C295.71 175.6, 312.42 156.38, 328.86 137.47 M299.07 177.83 C309.67 165.64, 320.27 153.45, 329.25 143.11 M299.07 177.83 C309.63 165.68, 320.19 153.53, 329.25 143.11 M28.6 166.77 C28.6 166.77, 28.6 166.77, 28.6 166.77 M28.6 166.77 C28.6 166.77, 28.6 166.77, 28.6 166.77 M142.92 260.85 C94.1 218.41, 45.28 175.97, 13.87 148.67 M142.92 260.85 C106.38 229.09, 69.84 197.32, 13.87 148.67 M159.89 270.3 C123.59 238.74, 87.29 207.19, 11.96 141.71 M159.89 270.3 C102.05 220.02, 44.22 169.75, 11.96 141.71 M171.57 275.15 C127.21 236.59, 82.85 198.03, 13.08 137.38 M171.57 275.15 C117.36 228.03, 63.16 180.91, 13.08 137.38 M176.46 274.1 C134.84 237.93, 93.23 201.76, 14.95 133.71 M176.46 274.1 C136.91 239.73, 97.37 205.36, 14.95 133.71 M180.59 272.4 C135.99 233.63, 91.39 194.86, 16.82 130.03 M180.59 272.4 C126.67 225.52, 72.75 178.65, 16.82 130.03 M184.72 270.69 C146.49 237.45, 108.25 204.21, 20.2 127.67 M184.72 270.69 C135.48 227.88, 86.23 185.07, 20.2 127.67 M188.86 268.98 C146.04 231.76, 103.21 194.53, 22.82 124.65 M188.86 268.98 C124.66 213.18, 60.46 157.37, 22.82 124.65 M192.24 266.62 C129.29 211.9, 66.34 157.18, 25.44 121.63 M192.24 266.62 C141.64 222.64, 91.05 178.66, 25.44 121.63 M195.61 264.26 C141.43 217.15, 87.24 170.05, 28.82 119.27 M195.61 264.26 C146.39 221.46, 97.16 178.67, 28.82 119.27 M198.24 261.24 C158.8 226.96, 119.36 192.67, 31.45 116.25 M198.24 261.24 C149.08 218.5, 99.92 175.77, 31.45 116.25 M201.62 258.87 C160.16 222.84, 118.7 186.8, 34.07 113.23 M201.62 258.87 C138.84 204.31, 76.07 149.74, 34.07 113.23 M204.24 255.86 C139.34 199.43, 74.43 143.01, 37.45 110.87 M204.24 255.86 C154.11 212.28, 103.98 168.7, 37.45 110.87 M207.62 253.49 C143.28 197.57, 78.95 141.64, 40.83 108.5 M207.62 253.49 C143.54 197.79, 79.45 142.08, 40.83 108.5 M211 251.13 C152.17 199.99, 93.35 148.86, 43.45 105.49 M211 251.13 C171.33 216.64, 131.65 182.15, 43.45 105.49 M213.62 248.11 C149.27 192.17, 84.92 136.23, 46.83 103.12 M213.62 248.11 C176.62 215.94, 139.61 183.77, 46.83 103.12 M217 245.75 C171.32 206.04, 125.64 166.33, 50.21 100.76 M217 245.75 C182.21 215.51, 147.42 185.26, 50.21 100.76 M220.38 243.39 C173.52 202.65, 126.66 161.91, 52.84 97.74 M220.38 243.39 C182.72 210.65, 145.06 177.91, 52.84 97.74 M223.01 240.37 C182.15 204.85, 141.3 169.34, 56.22 95.38 M223.01 240.37 C187.97 209.91, 152.93 179.45, 56.22 95.38 M226.39 238 C162.12 182.14, 97.84 126.27, 59.59 93.02 M226.39 238 C181.5 198.99, 136.62 159.97, 59.59 93.02 M229.01 234.99 C164.35 178.78, 99.69 122.57, 62.22 90 M229.01 234.99 C191.57 202.44, 154.12 169.89, 62.22 90 M232.39 232.62 C197.93 202.67, 163.47 172.71, 65.6 87.63 M232.39 232.62 C187.34 193.46, 142.28 154.3, 65.6 87.63 M235.77 230.26 C175.2 177.61, 114.64 124.97, 68.22 84.61 M235.77 230.26 C181.46 183.05, 127.15 135.84, 68.22 84.61 M238.39 227.24 C182.8 178.92, 127.21 130.59, 71.6 82.25 M238.39 227.24 C191.33 186.33, 144.27 145.42, 71.6 82.25 M241.77 224.88 C198.14 186.95, 154.51 149.02, 74.98 79.89 M241.77 224.88 C180 171.18, 118.23 117.49, 74.98 79.89 M245.15 222.52 C187.98 172.82, 130.81 123.12, 77.6 76.87 M245.15 222.52 C178.37 164.46, 111.59 106.41, 77.6 76.87 M247.77 219.5 C194.52 173.21, 141.27 126.91, 80.98 74.51 M247.77 219.5 C195.48 174.04, 143.18 128.58, 80.98 74.51 M251.15 217.13 C202.45 174.79, 153.74 132.45, 84.36 72.14 M251.15 217.13 C209.14 180.62, 167.14 144.1, 84.36 72.14 M253.78 214.12 C220.14 184.87, 186.5 155.63, 86.99 69.13 M253.78 214.12 C204.87 171.6, 155.97 129.09, 86.99 69.13 M257.16 211.75 C218.23 177.92, 179.31 144.08, 90.37 66.76 M257.16 211.75 C204.87 166.3, 152.58 120.85, 90.37 66.76 M260.53 209.39 C208.51 164.17, 156.49 118.94, 93.74 64.4 M260.53 209.39 C204.18 160.4, 147.82 111.41, 93.74 64.4 M263.16 206.37 C213.32 163.05, 163.48 119.73, 96.37 61.38 M263.16 206.37 C197.44 149.24, 131.71 92.11, 96.37 61.38 M266.54 204.01 C218.34 162.11, 170.13 120.2, 99.75 59.02 M266.54 204.01 C222.31 165.56, 178.08 127.12, 99.75 59.02 M269.92 201.65 C235.09 171.37, 200.27 141.1, 102.37 56 M269.92 201.65 C212.42 151.67, 154.93 101.69, 102.37 56 M272.54 198.63 C221.18 153.98, 169.82 109.34, 105.75 53.64 M272.54 198.63 C208.87 143.28, 145.21 87.94, 105.75 53.64 M275.92 196.26 C214.88 143.21, 153.85 90.15, 109.13 51.27 M275.92 196.26 C217.62 145.59, 159.33 94.91, 109.13 51.27 M278.54 193.24 C215.23 138.21, 151.92 83.17, 111.75 48.26 M278.54 193.24 C214.62 137.67, 150.69 82.1, 111.75 48.26 M281.92 190.88 C221.13 138.04, 160.34 85.19, 115.13 45.89 M281.92 190.88 C241.74 155.95, 201.56 121.03, 115.13 45.89 M285.3 188.52 C243.46 152.15, 201.62 115.77, 118.51 43.53 M285.3 188.52 C242.83 151.6, 200.36 114.68, 118.51 43.53 M287.93 185.5 C241.1 144.79, 194.27 104.09, 121.14 40.51 M287.93 185.5 C223.86 129.81, 159.79 74.11, 121.14 40.51 M291.31 183.14 C240.51 138.98, 189.72 94.83, 124.51 38.15 M291.31 183.14 C229.66 129.55, 168.01 75.96, 124.51 38.15 M294.68 180.77 C231.63 125.96, 168.58 71.15, 127.89 35.79 M294.68 180.77 C230.46 124.95, 166.24 69.12, 127.89 35.79 M297.31 177.76 C254.06 140.16, 210.81 102.56, 130.52 32.77 M297.31 177.76 C232.07 121.04, 166.82 64.33, 130.52 32.77 M300.69 175.39 C266.41 145.59, 232.13 115.79, 133.9 30.4 M300.69 175.39 C235.86 119.04, 171.04 62.69, 133.9 30.4 M303.31 172.37 C258.51 133.42, 213.7 94.47, 137.28 28.04 M303.31 172.37 C241.67 118.79, 180.03 65.21, 137.28 28.04 M306.69 170.01 C257.15 126.95, 207.62 83.89, 140.65 25.68 M306.69 170.01 C243.78 115.32, 180.86 60.63, 140.65 25.68 M310.07 167.65 C272.24 134.77, 234.42 101.88, 143.28 22.66 M310.07 167.65 C268.22 131.27, 226.37 94.89, 143.28 22.66 M312.69 164.63 C266.61 124.57, 220.52 84.5, 146.66 20.3 M312.69 164.63 C266.38 124.37, 220.07 84.11, 146.66 20.3 M316.07 162.27 C273.46 125.23, 230.85 88.19, 150.04 17.93 M316.07 162.27 C256.26 110.27, 196.44 58.27, 150.04 17.93 M318.7 159.25 C260.81 108.93, 202.93 58.61, 153.42 15.57 M318.7 159.25 C277.24 123.21, 235.78 87.17, 153.42 15.57 M321.32 156.23 C284.82 124.5, 248.31 92.77, 156.79 13.21 M321.32 156.23 C268.93 110.69, 216.54 65.14, 156.79 13.21 M324.7 153.87 C290.28 123.94, 255.86 94.02, 160.17 10.85 M324.7 153.87 C259.58 97.26, 194.46 40.65, 160.17 10.85 M327.32 150.85 C291.31 119.54, 255.3 88.24, 164.31 9.14 M327.32 150.85 C272.93 103.56, 218.53 56.27, 164.31 9.14 M329.19 147.17 C275.59 100.58, 221.99 53.98, 168.44 7.43 M329.19 147.17 C288.35 111.66, 247.5 76.16, 168.44 7.43 M329.55 142.19 C284.55 103.06, 239.54 63.93, 173.33 6.38 M329.55 142.19 C282.17 101, 234.79 59.8, 173.33 6.38 M327.65 135.23 C289.21 101.82, 250.78 68.4, 194.07 19.11 M327.65 135.23 C286.9 99.81, 246.15 64.38, 194.07 19.11" stroke="#f0ff42" stroke-width="0.5" fill="none"></path><path d="M213.75 35.75 M213.75 35.75 C238.28 56.75, 262.8 77.75, 297.25 107.25 M213.75 35.75 C239.94 58.18, 266.13 80.6, 297.25 107.25 M297.25 107.25 C340 143, 340 143, 297.25 178.75 M297.25 107.25 C340 143, 340 143, 297.25 178.75 M297.25 178.75 C277.13 195.73, 257.02 212.72, 213.75 249.25 M297.25 178.75 C280.18 193.16, 263.11 207.58, 213.75 249.25 M213.75 249.25 C171 285, 171 285, 128.25 249.25 M213.75 249.25 C171 285, 171 285, 128.25 249.25 M128.25 249.25 C103.76 229.06, 79.28 208.87, 42.75 178.75 M128.25 249.25 C107.99 232.54, 87.72 215.83, 42.75 178.75 M42.75 178.75 C0 143, 0 143, 42.75 107.25 M42.75 178.75 C0 143, 0 143, 42.75 107.25 M42.75 107.25 C63.91 89.56, 85.07 71.86, 128.25 35.75 M42.75 107.25 C70.98 83.64, 99.21 60.03, 128.25 35.75 M128.25 35.75 C171 0, 171 0, 213.75 35.75 M128.25 35.75 C171 0, 171 0, 213.75 35.75" stroke="#20262e" stroke-width="1" fill="none"></path></g><g transform="translate(86.5 130) rotate(0 91 20.5)"><text x="0" y="33" font-family="Helvetica, Segoe UI Emoji" font-size="36px" fill="#eeeeee" text-anchor="start" style="white-space: pre;" direction="ltr">SHE / HER</text></g></svg>